<?xml version="1.0" standalone="yes"?>
<svg xmlns="http://www.w3.org/2000/svg" width="866" height="865">
<path style="fill:#010202; stroke:none;" d="M0 0L0 413L1 413C1 240.832 127.45 81.1461 286.83 25.037C325.286 11.4987 365.993 1 407 1L371 0L288 0L0 0z"/>
<path style="fill:#056db2; stroke:none;" d="M407 0.424377C384.266 3.40942 361.73 4.03851 339.17 9.21991C264.661 26.3323 194.318 61.8605 138 114.09C18.5627 224.858 -29.0654 400.056 16.9699 556C34.906 616.759 66.5197 673.37 108.424 720.83C165.377 785.334 240.757 829.226 323 852.441C374.721 867.041 434.622 869.57 487.91 862.872C680.76 838.631 845.205 677.578 863.83 482C868.808 429.733 866.242 374.866 852.911 324C812.468 169.694 687.233 45.6793 531.089 10.7801C491.877 2.01587 447.379 -4.8775 407 0.424377z"/>
<path style="fill:#010202; stroke:none;" d="M459 0L459 1C499.779 1 540.916 11.5049 579.17 25.037C745.501 83.8768 865 246.928 865 424L866 424L866 0L459 0z"/>
<path style="fill:#5295ba; stroke:none;" d="M376 2L377 3L376 2M320 13L321 14L320 13M545 13L546 14L545 13M277 27L278 28L277 27z"/>
<path style="fill:#b1b0b1; stroke:none;" d="M269 30L270 31L269 30z"/>
<path style="fill:#5295ba; stroke:none;" d="M595 30L596 31L595 30z"/>
<path style="fill:#b1b0b1; stroke:none;" d="M596 30L597 31L596 30z"/>
<path style="fill:#010202; stroke:none;" d="M136 680C132.466 661.406 125.21 647.805 128.205 628C133.455 593.286 168.743 562.574 204 563.019C221.74 563.242 234.682 570.935 251 576C243.609 560.353 230.996 546.726 223.084 531C204.877 494.81 197.274 453.311 199.039 413C203.428 312.785 280.624 224.42 377 200.475C411.767 191.837 446.079 193.087 481 199C477.162 194.015 469.119 191.459 464.015 187.626C454.41 180.414 446.227 170.817 440.949 160C424.344 125.968 434.298 84.1944 465.439 62C479.086 52.274 494.567 48.1221 511 46C507.3 43.1964 501.529 43.4774 497 42.3742C482.431 38.8258 465.011 38 450 38C392.492 38 338.568 44.2873 285 66.5764C239.647 85.447 198.933 111.387 162.996 145.09C57.5468 243.986 19.0399 398.223 58.091 536C68.8345 573.904 85.6852 608.702 106.576 642C113.713 653.377 124.34 673.148 136 680z"/>
<path style="fill:#5295ba; stroke:none;" d="M238 44L239 45L238 44z"/>
<path style="fill:#63686c; stroke:none;" d="M534 217C530.879 211.58 521.133 207.414 515 208C510.561 201.169 496.341 200.968 489 198.11C473.037 191.896 459.568 182.913 449.251 169C420.508 130.24 438.026 76.7635 480 56.2755C495.276 48.8191 512.456 50 529 50C520.246 43.763 506.72 46.5638 497 48.3889C465.54 54.2956 437.143 80.022 433.184 113C429.509 143.617 442.153 175.329 469 191.747C481.324 199.284 494.608 201.707 508 206.438C516.668 209.501 525.115 214.986 534 217z"/>
<path style="fill:#5295ba; stroke:none;" d="M517 50L517 51L533 53L531 49L517 50z"/>
<path style="fill:#63686c; stroke:none;" d="M531 49C533.112 52.83 535.839 52.9508 540 53L540 52L531 49z"/>
<path style="fill:#5295ba; stroke:none;" d="M227 50L228 51L227 50M502 50L502 51L507 51L502 50z"/>
<path style="fill:#b1b0b1; stroke:none;" d="M463 65C460.2 70.2446 454.442 73.9601 450.76 78.7284C444.84 86.3948 440.203 96.0059 437.495 105.286C428.827 134.986 441.631 170.659 468 188.001C481.51 196.886 497.234 199.367 512.004 204.876C535.058 213.474 557.552 225.849 577 240.888C632.891 284.11 671.71 357.479 669.985 429C667.814 519.039 613.148 605.926 529.999 642.7C506.354 653.157 482.239 658.011 457 661.289C424.509 665.509 391.08 663.811 360 652.37C340.46 645.176 321.451 636.316 304 624.922C282.439 610.845 266.574 588.714 244.576 575.88C211.038 556.313 164.041 565.782 142.745 599C137.477 607.217 133.055 616.271 131.831 626C130.959 632.932 128.309 638.802 129.129 646C134.069 689.38 173.259 718.151 206 742.626C305.484 816.993 438.614 831.947 554.714 796.584C666.596 762.507 755.345 670.364 797.138 563C810.02 529.909 816.664 493.702 820.871 458.91C826.326 413.805 817.768 365.202 806.451 321.999C779.939 220.782 707.056 134.764 616.17 84.9205C585.903 68.3218 547.066 50.0293 512 50.0293C501.673 50.0293 490.553 51.4333 481 55.51C474.812 58.1508 469.431 63.3082 463 65z"/>
<path style="fill:#5295ba; stroke:none;" d="M492 51L493 52L492 51M491 52L492 53L491 52M538 53L538 54L542 52L538 53z"/>
<path style="fill:#63686c; stroke:none;" d="M542 52C543.223 55.6866 545.308 55.8796 549 56L542 52z"/>
<path style="fill:#5295ba; stroke:none;" d="M485 53L485 54L488 54L485 53M542 55L543 56L542 55M547 56L547 57L553 59L547 56z"/>
<path style="fill:#63686c; stroke:none;" d="M550 55C552.499 57.9739 554.157 58.6307 558 58L550 55z"/>
<path style="fill:#5295ba; stroke:none;" d="M478 56L479 57L478 56M556 58L556 59L568 62L556 58M213 58L214 59L213 58z"/>
<path style="fill:#63686c; stroke:none;" d="M561 58L566 61L566 60L561 58z"/>
<path style="fill:#5295ba; stroke:none;" d="M652 58L653 59L652 58z"/>
<path style="fill:#63686c; stroke:none;" d="M568 61L574 64L568 61z"/>
<path style="fill:#5295ba; stroke:none;" d="M568 63L569 64L568 63M203 64L204 65L203 64M466 64L467 65L466 64M569 64L569 65C573.233 65.6033 578.644 69.8148 582 66L569 64z"/>
<path style="fill:#63686c; stroke:none;" d="M575 64L581 67L575 64z"/>
<path style="fill:#5295ba; stroke:none;" d="M662 64L663 65L662 64M462 67L463 68L462 67z"/>
<path style="fill:#63686c; stroke:none;" d="M582 67L595 73L582 67z"/>
<path style="fill:#b1b0b1; stroke:none;" d="M196 68L197 69L196 68z"/>
<path style="fill:#5295ba; stroke:none;" d="M582 69L583 70L582 69M584 70L584 71L589 72L584 70M192 71L193 72L192 71M589.667 72.3333L590.333 72.6667L589.667 72.3333M592 73L592 74L597 73L592 73M455 73L456 74L455 73z"/>
<path style="fill:#63686c; stroke:none;" d="M596 73L601 75L596 73z"/>
<path style="fill:#5295ba; stroke:none;" d="M186 75L187 76L186 75M596.667 75.3333L597.333 75.6667L596.667 75.3333M599 76L604 79L603 75L599 76z"/>
<path style="fill:#63686c; stroke:none;" d="M603 75L607 78L607 77L603 75z"/>
<path style="fill:#5295ba; stroke:none;" d="M679 75L680 76L679 75M606 78L606 80L608 80L608 78L606 78z"/>
<path style="fill:#63686c; stroke:none;" d="M608 78C608.86 81.0809 609.908 81.522 613 81C617.171 87.6513 634.155 96.9313 642 98L642 97L608 78z"/>
<path style="fill:#5295ba; stroke:none;" d="M450 79L451 80L450 79M608.667 81.3333L609.333 81.6667L608.667 81.3333M612 81L612 83L614 83L612 81M176 82L177 83L176 82M447 84L448 85L447 84M614.667 84.3333L615.333 84.6667L614.667 84.3333M172 85L173 86L172 85M617 85L618 86L617 85M620.667 87.3333L621.333 87.6667L620.667 87.3333M167 89L168 90L167 89M624 89L625 90L624 89M698 89L699 90L698 89M625 90L625 91L628 91L625 90M628 91L629 92L628 91M629 92L630 93L629 92M442 93L443 94L442 93M631 93L631 94L634 94L631 93M441 95L442 96L441 95M634 95L635 96L634 95M158 96L159 97L158 96M636.667 96.3333L637.333 96.6667L636.667 96.3333M639 98L639 99L643 100L639 98z"/>
<path style="fill:#63686c; stroke:none;" d="M643 98L647 101L647 100L643 98z"/>
<path style="fill:#5295ba; stroke:none;" d="M439 101L440 102L439 101M643 101L643 102L663 114L663 113C659.657 109.972 657.892 106.477 653 107L653 104L649 101L643 101M151 102L152 103L151 102z"/>
<path style="fill:#63686c; stroke:none;" d="M648 102L651 104L648 102z"/>
<path style="fill:#5295ba; stroke:none;" d="M150 103L151 104L150 103M438 103L439 104L438 103z"/>
<path style="fill:#63686c; stroke:none;" d="M653 104L652 105L652 106L653 107L654 107L655 106L655 105L653 104z"/>
<path style="fill:#5295ba; stroke:none;" d="M143 109L144 110L143 109M142 110L143 111L142 110z"/>
<path style="fill:#63686c; stroke:none;" d="M660 110L661 111L660 110M661 111L670 118L661 111z"/>
<path style="fill:#b1b0b1; stroke:none;" d="M138 113L139 114L138 113z"/>
<path style="fill:#5295ba; stroke:none;" d="M436.333 113.667L436.667 114.333L436.333 113.667M663 115L664 116L663 115M665 116L667 118L667 116L665 116z"/>
<path style="fill:#b1b0b1; stroke:none;" d="M134 117L135 118L134 117z"/>
<path style="fill:#5295ba; stroke:none;" d="M435 117L436 118L435 117M668 118C671.656 124.36 687.979 138.231 695 140L695 139C690.151 135.511 680.427 128.707 679 123L668 118z"/>
<path style="fill:#63686c; stroke:none;" d="M671 118L672 119L671 118z"/>
<path style="fill:#5295ba; stroke:none;" d="M434 119L435 120L434 119z"/>
<path style="fill:#63686c; stroke:none;" d="M672 119L678 124L672 119z"/>
<path style="fill:#5295ba; stroke:none;" d="M131 120L132 121L131 120M734 120L735 121L734 120z"/>
<path style="fill:#63686c; stroke:none;" d="M678 124L684 129L678 124z"/>
<path style="fill:#5295ba; stroke:none;" d="M124 127L125 128L124 127M741 127L742 128L741 127z"/>
<path style="fill:#63686c; stroke:none;" d="M684 129L685 130L684 129M686.333 130.667L686.667 131.333L686.333 130.667z"/>
<path style="fill:#5295ba; stroke:none;" d="M434 131L435 132L434 131z"/>
<path style="fill:#63686c; stroke:none;" d="M687.667 132.333L688.333 132.667L687.667 132.333z"/>
<path style="fill:#5295ba; stroke:none;" d="M435 133L436 134L435 133z"/>
<path style="fill:#63686c; stroke:none;" d="M689 133L692 136L689 133z"/>
<path style="fill:#b1b0b1; stroke:none;" d="M117 134L118 135L117 134M748 134L749 135L748 134z"/>
<path style="fill:#5295ba; stroke:none;" d="M436.333 136.667L436.667 137.333L436.333 136.667z"/>
<path style="fill:#63686c; stroke:none;" d="M692 136L703.615 148.127L730 176L731 176C725.091 163.312 704.982 142.022 692 136z"/>
<path style="fill:#5295ba; stroke:none;" d="M695 141L695 142L701 146L695 141M109 143L110 144L109 143M108 144L109 145L108 144M701 146L702 147L701 146M702 147L704 149L704 147L702 147M439 149L440 150L439 149M704 149L705 150L704 149M103 150L104 151L103 150M705 150L707 152L707 150L705 150M762 150L763 151L762 150M102 151L103 152L102 151M763 151L764 152L763 151z"/>
<path style="fill:#b1b0b1; stroke:none;" d="M100 153L101 154L100 153z"/>
<path style="fill:#5295ba; stroke:none;" d="M708 153L709 154L708 153z"/>
<path style="fill:#b1b0b1; stroke:none;" d="M99 154L100 155L99 154z"/>
<path style="fill:#5295ba; stroke:none;" d="M709.333 154.667L709.667 155.333L709.333 154.667M441 155L442 156L441 155M442 156L443 157L442 156M710.667 156.333L711.333 156.667L710.667 156.333M96 158L97 159L96 158M712 158L713 159L712 158M769 158L770 159L769 158M713.667 159.333L714.333 159.667L713.667 159.333M94 161L95 162L94 161M715 161L716 162L715 161M93 162L94 163L93 162M716 162L718 164L718 162L716 162M718 164L719 165L718 164M446 165L447 166L446 165M719 165L722 168L719 165M447 166L448 167L447 166M89 167L90 168L89 167z"/>
<path style="fill:#b1b0b1; stroke:none;" d="M88 168L89 169L88 168z"/>
<path style="fill:#5295ba; stroke:none;" d="M448 168L449 169L448 168M722 168L724 170L724 168L722 168M450 170L451 171L450 170M724 170L725 171L724 170M86 171L87 172L86 171M725 171L735 183L725 171M779 171L780 172L779 171z"/>
<path style="fill:#b1b0b1; stroke:none;" d="M85 172L86 173L85 172z"/>
<path style="fill:#5295ba; stroke:none;" d="M452 173L453 174L452 173M453 174L454 175L453 174M455 176L456 177L455 176z"/>
<path style="fill:#63686c; stroke:none;" d="M732 176L733 177L732 176M733 178C734.117 182.674 736.681 185.887 741 188L733 178z"/>
<path style="fill:#5295ba; stroke:none;" d="M458 179L459 180L458 179M78 182L79 183L78 182M461 182L462 183L461 182M463 184L464 185L463 184M735 184L736 185L735 184M736 185L738 187L738 185L736 185M75 186L76 187L75 186M790 186L791 187L790 186M738 187L739 188L738 187M739 188L743 195L744 195L745 192L742 188L739 188M469 189L470 190L469 189M473 190L474 191L473 190z"/>
<path style="fill:#63686c; stroke:none;" d="M742 190L742 192L744 192L744 190L742 190z"/>
<path style="fill:#5295ba; stroke:none;" d="M793 191L794 192L793 191M475.667 192.333L476.333 192.667L475.667 192.333z"/>
<path style="fill:#63686c; stroke:none;" d="M744 193L750 200L744 193z"/>
<path style="fill:#056db2; stroke:none;" d="M412 194.439C383.085 198.944 355.653 204.848 329 217.627C268.765 246.505 222.896 303.651 205.923 368C187.043 439.581 205.283 520.907 252.466 577.999C300.414 636.017 384.196 670.363 459 659.7C568.621 644.073 653.913 560.267 665.826 449C678.935 326.568 583.737 209.454 462 195.833C445.948 194.037 428.155 191.922 412 194.439z"/>
<path style="fill:#5295ba; stroke:none;" d="M483 195L484 196L483 195M744.667 196.333L745.333 196.667L744.667 196.333M487 197L488 198L487 197M746 197L748 200L746 197M488 198L488 199L492 199L488 198M748 200L752 206L748 200M497 201L497 202L504 202L497 201z"/>
<path style="fill:#63686c; stroke:none;" d="M750 201L756 209L750 201z"/>
<path style="fill:#5295ba; stroke:none;" d="M505 202L506 203L505 202M801 203L802 204L801 203M512 204L513 205L512 204M514 206L515 207L514 206M515.667 207.333L516.333 207.667L515.667 207.333M519 207L520 208L519 207M752 207L753 208L752 207M520 208L521 209L520 208M753 208L754 209L753 208M754 209L755 212L756 212L756 209L754 209z"/>
<path style="fill:#63686c; stroke:none;" d="M756 210L762 218L756 210z"/>
<path style="fill:#5295ba; stroke:none;" d="M527 211L528 212L527 211M528 212L529 213L528 212M531.667 213.333L532.333 213.667L531.667 213.333M756 213L757 214L756 213M807 213L808 214L807 213M533 214L534 215L533 214M757 214L758 215L757 214M534 215L556 227C550.779 221.176 541.404 217.295 534 215M758 216L759 217L758 216z"/>
<path style="fill:#63686c; stroke:none;" d="M535 217L535 218L541 220L535 217z"/>
<path style="fill:#5295ba; stroke:none;" d="M760 217L764 226L765 226L760 217M810 218L811 219L810 218z"/>
<path style="fill:#63686c; stroke:none;" d="M762 219L767 226L762 219M541 220L541 221C568.462 237.028 593.276 255.064 613.54 280C620.424 288.471 627.064 297.536 632.515 307C635.646 312.435 638.466 320.814 644 324C641.348 314.162 634.429 305.215 628.806 296.914C613.613 274.483 594.591 252.291 572.089 236.789C563.269 230.713 551.815 221.416 541 220z"/>
<path style="fill:#5295ba; stroke:none;" d="M549 225L550 226L549 225M766 226L766 230L767 230L768 226L766 226M557.667 227.333L558.333 227.667L557.667 227.333z"/>
<path style="fill:#63686c; stroke:none;" d="M767 227L778 247L779 246L767 227z"/>
<path style="fill:#5295ba; stroke:none;" d="M560 229L561 230L560 229M525 474C512.139 533.937 429.558 543.14 384 519.833C340.719 497.692 325.649 448.558 330.105 403C337.132 331.144 417.361 291.368 481 319.3C495.051 325.468 507.065 334.913 517.022 346.536C521.44 351.693 525.85 364.08 532.185 366.436C538.524 368.793 548.281 367 555 367L596 367C601.729 367 609.34 368.319 614.852 366.682C618.81 365.507 618.261 360.207 617.541 357C593.149 248.404 458.299 207.328 364 243.079C263.114 281.327 214.698 400.223 257.696 498C274.822 536.944 305.947 571.048 344 590.486C422.135 630.398 531.363 617.895 585.62 544C602.89 520.479 613.382 492.412 618.329 464C621.442 446.119 626.992 425.49 623.852 407.059C622.968 401.873 617.002 403 613 403L581 403L471 403L443 403C439.878 403 434.221 401.954 431.603 404.028C428.4 406.565 430 415.368 430 419L430 458C430 461.767 428.577 469.288 431.603 472.142C434.344 474.726 439.569 473.999 443 474L472 474L525 474M562.667 230.333L563.333 230.667L562.667 230.333M48 231L49 232L48 231z"/>
<path style="fill:#b1b0b1; stroke:none;" d="M419 231.428C386.046 236.147 354.828 245.273 327 264.194C305.598 278.747 286.856 297.093 272.953 319C260.423 338.743 250.966 360.95 246.619 384C241.979 408.601 241.825 433.382 246.468 458C268.023 572.296 391.555 635.34 499 602.565C563.944 582.754 606.859 527.028 617.754 461C619.95 447.689 621.166 434.466 622.089 421C622.373 416.87 624.846 409.232 621.972 405.603C619.739 402.784 613.151 404 610 404L577 404L479 404C465.686 404 446.884 400.537 434.148 404.318C429.192 405.789 431 415.05 431 419L431 457C431 461.036 429.83 467.458 433.318 470.397C437.529 473.945 447.813 472 453 472L504 472C508.598 472 522.827 469.652 525.998 473.434C529.349 477.431 520.621 489.601 518.65 493C507.237 512.673 486.49 524.512 465 530.076C452.969 533.192 438.379 535.26 426 533.575C404.976 530.713 384.973 524.776 368 511.483C331.186 482.651 319.813 428.655 332.77 385C351.673 321.315 425.573 290.304 485 319.525C497.494 325.668 508.637 334.427 517.7 345C522.288 350.353 525.601 359.259 531.21 363.397C535.701 366.709 544.694 365 550 365L597 365C600.885 365 614.595 367.121 616.303 362.682C617.819 358.742 614.098 349.865 612.772 346C607.456 330.514 600.203 315.913 590.104 302.961C552.206 254.355 481.136 222.53 419 231.428z"/>
<path style="fill:#5295ba; stroke:none;" d="M564 231L565 232L564 231M768 231L769 232L768 231M817 231L818 232L817 231M769 232L769 235L770 235L769 232M569 235L570 236L569 235M571 236L572 237L571 236M770 236L771 237L770 236M772 237L772 241L773 241L772 237M821 239L822 240L821 239M773 241L774 242L773 241M774 242L775 243L774 242M580 243L581 244L580 243M775 243L775 246L776 246L775 243M581 244L582 245L581 244M583 246L584 247L583 246M776 246L777 247L776 246M778 246L779 249L778 246M584 247L585 248L584 247M586 248L587 249L586 248z"/>
<path style="fill:#63686c; stroke:none;" d="M779 248L782 252L779 248z"/>
<path style="fill:#5295ba; stroke:none;" d="M587.667 250.333L588.333 250.667L587.667 250.333M778.333 250.667L778.667 251.333L778.333 250.667M589 251L590 252L589 251M590 252L591 253L590 252M780 252L780 255L782 252L780 252M591 253L591 255L593 255L591 253z"/>
<path style="fill:#63686c; stroke:none;" d="M781 254L785 258L783 254L781 254z"/>
<path style="fill:#5295ba; stroke:none;" d="M593 255L594 256L593 255M594 256L596 258L596 256L594 256M781 257L782 258L781 257M596 258L597 259L596 258M782 258L783 262L784 262L785 258L782 258M597.667 259.333L598.333 259.667L597.667 259.333z"/>
<path style="fill:#63686c; stroke:none;" d="M784 259L791 278L792 278C792.491 272.011 788.402 263.05 784 259z"/>
<path style="fill:#5295ba; stroke:none;" d="M599 260L600 261L599 260M600 261L601 262L600 261M601 262L602 263L601 262M602 263L603 264L602 263M784 263L785 264L784 263M603 264L604 265L603 264M786 265L786 269L787 269L786 265M607 269L608 270L607 269M608 270L609 271L608 270M609 271L610 272L609 271M788 271L789 272L788 271M789 272L789 276L790 276L789 272M611 273L612 274L611 273M612.333 274.667L612.667 275.333L612.333 274.667M613.667 276.333L614.333 276.667L613.667 276.333M790 277L791 278L790 277M792 277L795 291L796 291L792 277M27 278L28 279L27 278M615 278L616 279L615 278M838 278L839 279L838 278M616 279L617 280L616 279z"/>
<path style="fill:#63686c; stroke:none;" d="M793 280L796 285L793 280z"/>
<path style="fill:#5295ba; stroke:none;" d="M618 282L619 283L618 282M619 283L620 284L619 283M620 284L621 285L620 284z"/>
<path style="fill:#63686c; stroke:none;" d="M796 286C796.013 289.194 795.597 291.271 799 292L796 286z"/>
<path style="fill:#5295ba; stroke:none;" d="M622 287L623 288L622 287M623 288L624 289L623 288M23 289L24 290L23 289M842 289L843 290L842 289M624 290L625 291L624 290M626 292L627 293L626 292M797 292L802 304L799 300L797 292z"/>
<path style="fill:#63686c; stroke:none;" d="M799 294C799.013 297.194 798.597 299.271 802 300L799 294z"/>
<path style="fill:#5295ba; stroke:none;" d="M627 295L628 296L627 295M628 296L629 299L630 299L630 296L628 296M630 299L631 300L630 299M632 301L633 302L632 301M633 303L634 304L633 303z"/>
<path style="fill:#63686c; stroke:none;" d="M802 303C801.328 306.543 801.972 308.029 805 310L802 303z"/>
<path style="fill:#5295ba; stroke:none;" d="M634 304L635 305L634 304M635.333 305.667L635.667 306.333L635.333 305.667M17 307L18 308L17 307M801.333 307.667L801.667 308.333L801.333 307.667M637 309L638 310L637 309M802 309L804 313L802 309M638 311L638 314L639 314L638 311z"/>
<path style="fill:#63686c; stroke:none;" d="M804 312L807 319L804 312z"/>
<path style="fill:#5295ba; stroke:none;" d="M640 314L641 315L640 314M804.333 316.667L804.667 317.333L804.333 316.667M641.333 318.667L641.667 319.333L641.333 318.667M805 318L806 319L805 318M807 318L806 322L807 322L807 318M643 320L644 321L643 320M13 321L14 322L13 321z"/>
<path style="fill:#63686c; stroke:none;" d="M807 321L810 329L807 321z"/>
<path style="fill:#5295ba; stroke:none;" d="M643 324L645 326L645 324L643 324z"/>
<path style="fill:#63686c; stroke:none;" d="M643 325L650 338C649.236 333.186 647.11 327.781 643 325z"/>
<path style="fill:#5295ba; stroke:none;" d="M646.333 327.667L646.667 328.333L646.333 327.667M807 328L808 329L807 328M809 329L809 337L810 337L811 329L809 329M647 331L648 332L647 331z"/>
<path style="fill:#63686c; stroke:none;" d="M810 332C810.015 336.15 809.613 339.544 814 341L810 332z"/>
<path style="fill:#5295ba; stroke:none;" d="M10 333L11 334L10 333M649.333 333.667L649.667 334.333L649.333 333.667M9 338L10 339L9 338M649 338L649 339L652 346L653 346C652.875 342.122 652.498 339.928 649 338z"/>
<path style="fill:#63686c; stroke:none;" d="M649 339L651 345L652 345L651 339L649 339z"/>
<path style="fill:#5295ba; stroke:none;" d="M810 340L811 341L810 340M812 341L812 352L813 352L814 341L812 341z"/>
<path style="fill:#63686c; stroke:none;" d="M813 344C813 348.192 812.175 352.52 816 355L813 344M652 346L663 388L664 388C664 373.593 658.209 359.658 654 346L652 346z"/>
<path style="fill:#5295ba; stroke:none;" d="M654 346L655 347L654 346M655 348L655 354L656 354L655 348M657 354L658 355L657 354M813 354L814 355L813 354M814 355L815 369L816 369C816.003 364.477 818.103 357.739 814 355M658 356L658 363L659 363L658 356z"/>
<path style="fill:#63686c; stroke:none;" d="M816 359L818 374C819.534 368.801 818.903 363.62 816 359z"/>
<path style="fill:#5295ba; stroke:none;" d="M659 363L660 364L659 363M660 364L661 365L660 364M661 367L661 375L662 375L661 367M3.33333 370.667L3.66667 371.333L3.33333 370.667M816 372L817 373L816 372M818 373L818 390L819 390L818 373M663 376L664 377L663 376z"/>
<path style="fill:#63686c; stroke:none;" d="M819 378C819 382.745 817.599 389.147 822 392L819 378z"/>
<path style="fill:#5295ba; stroke:none;" d="M664 383L666 390L664 383z"/>
<path style="fill:#63686c; stroke:none;" d="M663 389L666 441L669.385 429L667.093 409L665 389L663 389z"/>
<path style="fill:#5295ba; stroke:none;" d="M666 391L667 392L666 391M819 391L821 417L821 463L822 463C824.946 446.001 823 427.224 823 410C823 403.936 824.515 394.932 819 391M667 401L667 413L668 413L667 401M668.333 414.667L668.667 415.333L668.333 414.667M669 419L669 425L670 425L669 419M669 428L669 435L670 435L669 428z"/>
<path style="fill:#63686c; stroke:none;" d="M822 429L822 435L823 435L822 429z"/>
<path style="fill:#5295ba; stroke:none;" d="M666.333 438.667L666.667 439.333L666.333 438.667M668 438L668 441L669 441L668 438M666 441L666 453L667 453L668 441L666 441z"/>
<path style="fill:#010202; stroke:none;" d="M0 445L0 865L402 865L402 864C366.174 864 330.696 855.14 296.83 843.971C182.53 806.274 77.5449 715.82 33.6474 601.911C19.766 565.891 9.55811 530.117 3.25926 492C0.934619 477.933 5.38674 457.837 0 445M865 448C865 621.621 741.21 783.325 579.286 840.365C542.172 853.439 502.543 864 463 864L463 865L866 865L866 570L866 485C866 474.366 869.108 457.789 865 448z"/>
<path style="fill:#63686c; stroke:none;" d="M665 451L663 466C668.538 464.819 668.061 454.502 665 451z"/>
<path style="fill:#5295ba; stroke:none;" d="M666 462L666 465L667 465L666 462M819.333 462.667L819.667 463.333L819.333 462.667z"/>
<path style="fill:#63686c; stroke:none;" d="M820 462L819 482L820 482C820.506 475.647 824.201 467.546 820 462z"/>
<path style="fill:#5295ba; stroke:none;" d="M663 466L663 472L664 472L666 466L663 466M818 467L816 487C820.688 483.619 820.099 472.001 818 467z"/>
<path style="fill:#63686c; stroke:none;" d="M662 472L660 482C664.151 479.711 663.984 476.421 664 472L662 472z"/>
<path style="fill:#5295ba; stroke:none;" d="M663 480L664 481L663 480M662 481L663 482L662 481M660 482L661 488L662 488L660 482z"/>
<path style="fill:#63686c; stroke:none;" d="M660 484L657 492C660.936 490.694 661.537 487.704 660 484M817 486L816 499L817 499L819 486L817 486z"/>
<path style="fill:#5295ba; stroke:none;" d="M815 490L813 504C817.695 501.091 816.982 494.714 815 490M657 492L658 499L659 499L657 492M862.333 493.667L862.667 494.333L862.333 493.667M3 494L4 495L3 494z"/>
<path style="fill:#63686c; stroke:none;" d="M657 494L652 509C655.941 506.457 658.789 498.44 657 494z"/>
<path style="fill:#5295ba; stroke:none;" d="M657 500L658 501L657 500M656 501L657 502L656 501M655 502L655 507L656 507L655 502z"/>
<path style="fill:#63686c; stroke:none;" d="M814 503L813 513L814 513L816 503L814 503z"/>
<path style="fill:#5295ba; stroke:none;" d="M812 506L813 517L814 517L812 506M654 508L655 509L654 508M652 509L651 517L652 517L654 509L652 509z"/>
<path style="fill:#63686c; stroke:none;" d="M651 510L650 517L651 517L651 510z"/>
<path style="fill:#5295ba; stroke:none;" d="M649 516L646 529L647 529L649 516M810 516L811 517L810 516z"/>
<path style="fill:#63686c; stroke:none;" d="M811 516L810 525L811 525L813 516L811 516M648 519L646 523L648 519z"/>
<path style="fill:#5295ba; stroke:none;" d="M809 520L807 529L811 527L809 520z"/>
<path style="fill:#63686c; stroke:none;" d="M645 525L623 563C631.755 558.785 637.251 544.578 642.08 536.41C644.194 532.835 646.556 529.112 645 525M810 527L811 528L810 527M808 528L807 537L808 537L810 528L808 528z"/>
<path style="fill:#5295ba; stroke:none;" d="M644 531L645 532L644 531M855 531L856 532L855 531M643 534L644 535L643 534M806 534L805 538L808 538L808 537L806 534M641.333 536.667L641.667 537.333L641.333 536.667z"/>
<path style="fill:#63686c; stroke:none;" d="M804 545L808 538C804.313 539.223 804.12 541.308 804 545z"/>
<path style="fill:#5295ba; stroke:none;" d="M640 539L641 540L640 539M637 540L638 541L637 540M638 541L638 544L639 544L638 541M13.3333 543.667L13.6667 544.333L13.3333 543.667M803 544L805 547L803 544M637 545L638 546L637 545M635 546L635 550L636 550L635 546z"/>
<path style="fill:#63686c; stroke:none;" d="M802 547L801 554L805 547L802 547z"/>
<path style="fill:#5295ba; stroke:none;" d="M801 548L802 549L801 548M634 550L635 551L634 550M632 551L632 554L633 554L634 551L632 551M16 554L17 555L16 554M631 554L632 555L631 554M800 554L800 556L802 556L802 554L800 554M849 554L850 555L849 554M629 555L629 559L630 559L631 555L629 555z"/>
<path style="fill:#63686c; stroke:none;" d="M799 556L799 562L800 562L802 556L799 556z"/>
<path style="fill:#5295ba; stroke:none;" d="M798 557L797 564L798 557M848 557L849 558L848 557M17 558L18 559L17 558M628 559L629 560L628 559M626 561L625 563L627 563L626 561z"/>
<path style="fill:#63686c; stroke:none;" d="M392 816C388.839 810.984 370.964 809.238 365 809.015C346.08 808.307 324.197 800.466 306.17 794.525C298.944 792.143 289.602 785.573 282 787C277.48 780.622 266.169 777.595 259.246 774.252C243.216 766.51 226.956 757.997 212.464 747.64C183.206 726.73 144.616 698.977 132.749 663.714C120.961 628.686 140.616 588.651 173.285 572.763C186.839 566.172 201.193 565.456 216 566.019C232.258 566.636 252.109 579.126 263.421 590.145C268.964 595.545 278.771 610.626 287 610C270.6 591.521 249.71 571.333 225 565.339C175.027 553.219 122.14 594.15 127.17 647C130.591 682.954 156.924 707.367 183.999 728.789C231.584 766.44 284.589 794.208 344 807.514C359.479 810.981 376.038 815.868 392 816z"/>
<path style="fill:#5295ba; stroke:none;" d="M623 563L612 581L625 563L623 563M19 564L20 565L19 564z"/>
<path style="fill:#63686c; stroke:none;" d="M622 564L617 572C620.102 570.133 622.813 567.814 622 564M796 564L796 570L797 570L799 564L796 564z"/>
<path style="fill:#5295ba; stroke:none;" d="M795 565L790 579C793.367 575.758 796.896 569.648 795 565M190 566L191 567L190 566M20 567L21 568L20 567M189 567L190 568L189 567M222 567L223 568L222 567M187 568L188 569L187 568M223.667 568.333L224.333 568.667L223.667 568.333M178 570L179 571L178 570M231 570L232 571L231 570M177 571L178 572L177 571M232 571L233 572L232 571z"/>
<path style="fill:#63686c; stroke:none;" d="M794 571C789.178 584.122 782.536 605.631 772 615L773 618C783.363 608.71 793.107 584.541 796 571L794 571z"/>
<path style="fill:#5295ba; stroke:none;" d="M238 572L239 573L238 572z"/>
<path style="fill:#63686c; stroke:none;" d="M616 572C599.364 592.428 579.46 611.233 557 625.186C548.621 630.392 539.943 635.009 531 639.164C526.914 641.062 521.445 642.117 519 646C547.924 640.259 576.135 615.935 597.174 596.536C602.849 591.303 616.813 580.648 616 572z"/>
<path style="fill:#5295ba; stroke:none;" d="M170 574L171 575L170 574M240 574L241 575L240 574M23 576L24 577L23 576M167 576L168 577L167 576M165 577L166 578L165 577M246 577L247 578L246 577M248 578L249 579L248 578M161 580L162 581L161 580M250 580L251 581L250 580M789 580L788 585L789 580M252 581L253 582L252 581M158 582L159 583L158 582M253 582L254 583L253 582M610 582L611 583L610 582M255 583L256 584L255 583M609 583L610 584L609 583M256 584L257 585L256 584M257 585L258 586L257 585M608 585L609 586L608 585M787 585L788 586L787 585M259 586L265 592L259 586M27 587L28 588L27 587M606 587L607 588L606 587M786 587L785 591L786 587M151 588L152 589L151 588M605 588L606 589L605 588M149 589L150 590L149 589M603 590L604 591L603 590M602 591L603 592L602 591M784 591L785 592L784 591M146 592L147 593L146 592M265 592L273 600L265 592M600 593L601 594L600 593M783 593L783 597L784 597L783 593M599 594L600 595L599 594M145 595L146 596L145 595M597 596L598 597L597 596M595.667 597.333L596.333 597.667L595.667 597.333M781 597L782 598L781 597M594 599L595 600L594 599M273 600L276 603L273 600M592 600L593 601L592 600M780 601L781 602L780 601M33 602L34 603L33 602M591 602L592 603L591 602M779 602L780 603L779 602M276 603L277 604L276 603M589 603L590 604L589 603M778 603L778 606L779 606L778 603M34 604L35 605L34 604M831 604L832 605L831 604M139 605L140 606L139 605M277 605L278 606L277 605M588 605L589 606L588 605M279 606L280 607L279 606M585.667 606.333L586.333 606.667L585.667 606.333M137 607L138 608L137 607M777 607L778 608L777 607M280.667 608.333L281.333 608.667L280.667 608.333M581 610L584 608L581 610M776 608L777 609L776 608M283 609L284 610L283 609M775 609L775 613L776 613L775 609M285 611L310 629L309 625C305.219 624.741 296.545 619.718 296 616L293 617L288 610L285 611M580 610L578 611L578 612L580 610M37 611L38 612L37 611M135 611L136 612L135 611z"/>
<path style="fill:#63686c; stroke:none;" d="M289.333 611.667L289.667 612.333L289.333 611.667z"/>
<path style="fill:#5295ba; stroke:none;" d="M577 612L576 615L577 612z"/>
<path style="fill:#63686c; stroke:none;" d="M290.667 613.333L291.333 613.667L290.667 613.333z"/>
<path style="fill:#5295ba; stroke:none;" d="M774 613L775 614L774 613z"/>
<path style="fill:#63686c; stroke:none;" d="M292 614L295 617L292 614z"/>
<path style="fill:#5295ba; stroke:none;" d="M772 614L773 615L772 614M134.333 615.667L134.667 616.333L134.333 615.667M574.333 615.667L574.667 616.333L574.333 615.667M772 616L772 619L773 619L772 616z"/>
<path style="fill:#63686c; stroke:none;" d="M295 617L298 619L295 617z"/>
<path style="fill:#5295ba; stroke:none;" d="M570 619L574 618L570 619M133 618L134 619L133 618M132 619L133 620L132 619M566 622L570 620L566 622M770 619L761 635C764.992 632.242 770.572 624.001 770 619z"/>
<path style="fill:#63686c; stroke:none;" d="M771 619L770 624L771 624L773 619L771 619z"/>
<path style="fill:#5295ba; stroke:none;" d="M41 620L42 621L41 620z"/>
<path style="fill:#63686c; stroke:none;" d="M301 620L307 625L301 620z"/>
<path style="fill:#5295ba; stroke:none;" d="M565 622L566 623L565 622M563.667 623.333L564.333 623.667L563.667 623.333z"/>
<path style="fill:#63686c; stroke:none;" d="M768 624L761 638L770 624L768 624z"/>
<path style="fill:#5295ba; stroke:none;" d="M562 625L563 626L562 625z"/>
<path style="fill:#63686c; stroke:none;" d="M309 626C311.282 630.009 317.42 634.127 322 634L322 633L309 626z"/>
<path style="fill:#5295ba; stroke:none;" d="M558.667 626.333L559.333 626.667L558.667 626.333M131.333 627.667L131.667 628.333L131.333 627.667M557 627L558 628L557 627M556 628L557 629L556 628M311.667 629.333L312.333 629.667L311.667 629.333M554 629L555 630L554 629M314 631L314 632L317 632L314 631M551 631L552 632L551 631M130 632L131 633L130 632M549 632L550 633L549 632M48 633L49 634L48 633M129.333 633.667L129.667 634.333L129.333 633.667M317 633L318 634L317 633M548 633L549 634L548 633z"/>
<path style="fill:#b1b0b1; stroke:none;" d="M48 634L49 635L48 634z"/>
<path style="fill:#5295ba; stroke:none;" d="M318 634L319 635L318 634M321 634C323.657 637.206 331.413 643.039 335 639L330 640L329 636L321 634z"/>
<path style="fill:#63686c; stroke:none;" d="M323 634L328 637L328 636L323 634z"/>
<path style="fill:#5295ba; stroke:none;" d="M547 634L548 635L547 634M543 635L544 636L543 635M542 636L543 637L542 636M760 636L758 642L759 642L759 639L762 640L760 636M50 637L51 638L50 637z"/>
<path style="fill:#63686c; stroke:none;" d="M330 637L333 640L332 637L330 637z"/>
<path style="fill:#5295ba; stroke:none;" d="M538 637L538 638L542 638L538 637M51 639L52 640L51 639z"/>
<path style="fill:#63686c; stroke:none;" d="M759 639L759 642L761 639L759 639M335 640L339 642L335 640z"/>
<path style="fill:#5295ba; stroke:none;" d="M532 640L532 641L536 641L532 640M531 641L532 642L531 641M335.667 642.333L336.333 642.667L335.667 642.333M337 643L337 644L350 646L350 645C346.351 645.089 344.005 645.248 342 642L337 643M756 642L755 644L756 642z"/>
<path style="fill:#63686c; stroke:none;" d="M715 697C731.089 685.581 751.309 660.29 759 642L744.335 659.911L715 697M342 643L346 646L342 643z"/>
<path style="fill:#5295ba; stroke:none;" d="M524 643L524 644L530 644L524 643z"/>
<path style="fill:#63686c; stroke:none;" d="M510 649L517 646L510 649z"/>
<path style="fill:#5295ba; stroke:none;" d="M516 645L516 646L522 647L516 645M522 645L523 646L522 645M754.333 645.667L754.667 646.333L754.333 645.667z"/>
<path style="fill:#63686c; stroke:none;" d="M349 646L356 649L349 646z"/>
<path style="fill:#5295ba; stroke:none;" d="M810 646L811 647L810 646M516 647L517 648L516 647M753 647L754 648L753 647M349 648L350 649L349 648M356 648L352 649L352 650L358 652L356 648M508 648L507 652L513 650L508 648M515 648L516 649L515 648M752 648L751 651L752 648M129 649L130 650L129 649z"/>
<path style="fill:#63686c; stroke:none;" d="M357 649L362 652L357 649M502 650L502 651L508 649L502 650z"/>
<path style="fill:#5295ba; stroke:none;" d="M130 650L131 651L130 650M359 652L359 653L367 655L367 654L364 651L359 652z"/>
<path style="fill:#63686c; stroke:none;" d="M364 651C366.013 654.444 368.204 654.918 372 654L364 651M492 653L492 654L499 652L492 653z"/>
<path style="fill:#5295ba; stroke:none;" d="M498 651L498 652L506 653L498 651M749 651L749 653L751 651L749 651M487 654L473 660L498 655L487 654M498 653L499 654L498 653M131.333 654.667L131.667 655.333L131.333 654.667M371 654L371 655L376 656L376 654L371 654z"/>
<path style="fill:#63686c; stroke:none;" d="M376 654C377.183 658.045 380.306 657.815 384 657L376 654M481 656L481 657L488 656L481 656z"/>
<path style="fill:#5295ba; stroke:none;" d="M747 654L748 655L747 654M382 657L382 658L389 660L382 657M746.333 656.667L746.667 657.333L746.333 656.667M377.667 657.333L378.333 657.667L377.667 657.333z"/>
<path style="fill:#63686c; stroke:none;" d="M388 657C391.379 662.524 399.282 661 405 661L388 657M460 659L460 660C464.796 660.678 471.088 661.508 474 657L460 659z"/>
<path style="fill:#5295ba; stroke:none;" d="M62 658L63 659L62 658M745 658L746 659L745 658M803 658L804 659L803 658M744 659L745 660L744 659M390.667 660.333L391.333 660.667L390.667 660.333M405 660L405 662L407 662L405 660z"/>
<path style="fill:#63686c; stroke:none;" d="M406 660C408.697 663.74 412.704 663 417 663C426.564 663.001 442.612 666.068 451 661L406 660z"/>
<path style="fill:#5295ba; stroke:none;" d="M450 660L450 661L463 661L450 660M464.667 660.333L465.333 660.667L464.667 660.333M467 660L467 661L472 661L467 660M743.333 660.667L743.667 661.333L743.333 660.667M446 662L447 663L446 662M448 662L448 663L451 663L448 662M741.667 662.333L742.333 662.667L741.667 662.333M65 663L66 664L65 663M410 663L410 664L444 664L410 663M740.333 663.667L740.667 664.333L740.333 663.667M132 664L133 665L132 664M738 666L739 667L738 666M134 667L135 668L134 667M68 668L69 669L68 668M737 668L736 671L737 668M69 669L70 670L69 669M135 671L136 672L135 671M735.333 671.667L735.667 672.333L735.333 671.667M734 673L735 674L734 673M72 674L73 675L72 674M732 674L733 675L732 674M137 675L138 676L137 675M731 676L732 677L731 676M729 677L730 678L729 677M75 678L76 679L75 678M139 678L140 679L139 678M728 679L729 680L728 679M140 681L141 682L140 681M726 681L727 682L726 681M142 683L143 684L142 683M724 683L725 684L724 683M79 684L80 685L79 684M723 685L724 686L723 685M143 686L144 687L143 686M722 686L723 687L722 686M144 687L145 688L144 687M721 687L722 688L721 687M145 688L146 689L145 688M720.333 688.667L720.667 689.333L720.333 688.667M146 690L147 691L146 690M718 690L700 708L700 709L716 698L720 690L718 690M148 691L149 692L148 691M780 692L781 693L780 692M149 693L150 694L149 693M151.333 694.667L151.667 695.333L151.333 694.667M88 696L89 697L88 696M152.667 696.333L153.333 696.667L152.667 696.333M154 697L155 698L154 697z"/>
<path style="fill:#63686c; stroke:none;" d="M713 698L714 699L713 698z"/>
<path style="fill:#5295ba; stroke:none;" d="M156 699L157 700L156 699M157 700L158 701L157 700z"/>
<path style="fill:#63686c; stroke:none;" d="M711.667 700.333L712.333 700.667L711.667 700.333M709 701L709 703L711 701L709 701z"/>
<path style="fill:#5295ba; stroke:none;" d="M159 702L160 703L159 702z"/>
<path style="fill:#b1b0b1; stroke:none;" d="M93 703L94 704L93 703z"/>
<path style="fill:#5295ba; stroke:none;" d="M160.333 703.667L160.667 704.333L160.333 703.667z"/>
<path style="fill:#63686c; stroke:none;" d="M706 706L709 703L706 706z"/>
<path style="fill:#5295ba; stroke:none;" d="M162 705L163 706L162 705M96 706L97 707L96 706M163 706L164 707L163 706z"/>
<path style="fill:#63686c; stroke:none;" d="M654 748L654 749C671.39 742.311 695.213 721.055 706 706L679.675 727.985L654 748z"/>
<path style="fill:#5295ba; stroke:none;" d="M165 708L166 709L165 708M166 709L167 710L166 709z"/>
<path style="fill:#b1b0b1; stroke:none;" d="M99 710L100 711L99 710z"/>
<path style="fill:#5295ba; stroke:none;" d="M167 710L168 711L167 710M100 711L101 712L100 711M168 711L169 712L168 711M697 711L698 712L697 711M696 712L697 713L696 712M695 713L696 714L695 713M694 714L695 715L694 714M173 715L174 716L173 715M174 716L175 717L174 716M690 717L691 718L690 717M106 718L107 719L106 718M689 718L690 719L689 718M177 719L178 720L177 719M688 719L689 720L688 719M179 720L180 721L179 720M686 720L687 721L686 720M685 722L686 723L685 722M683 723L684 724L683 723M184 725L185 726L184 725M681.667 725.333L682.333 725.667L681.667 725.333M680.333 726.667L680.667 727.333L680.333 726.667M186 727L187 728L186 727M188 728L189 729L188 728M677 730L680 728L677 730M189 729L190 730L189 729M117 730L118 731L117 730M190 730L191 731L190 730M676 730L677 731L676 730M748 730L749 731L748 730M191 731L192 732L191 731M674.667 731.333L675.333 731.667L674.667 731.333M193 732L194 733L193 732M672 732L673 733L672 732M670.667 734.333L671.333 734.667L670.667 734.333M197 735L198 736L197 735M669 735L670 736L669 735M668 736L669 737L668 736M199 737L200 738L199 737M666.667 737.333L667.333 737.667L666.667 737.333M200 738L201 739L200 738M665 738L662 740L662 741L665 738M201 739L202 740L201 739M202.667 740.333L203.333 740.667L202.667 740.333M661 741L662 742L661 741M205 742L206 743L205 742M660 742L661 743L660 742M207 743L208 744L207 743M658.667 743.333L659.333 743.667L658.667 743.333M657 744L654 748L657 744M209 745L210 746L209 745M211 746L212 747L211 746M212 747L215 749L215 748L212 747M651 748L651 749L655 750L651 748M216 749L217 750L216 749M649 749L627 763L627 764L632 764L649 749z"/>
<path style="fill:#63686c; stroke:none;" d="M650 749L640 758L652 749L650 749z"/>
<path style="fill:#5295ba; stroke:none;" d="M217 750L218 751L217 750M138 751L139 752L138 751M218.667 751.333L219.333 751.667L218.667 751.333M220 752L221 753L220 752M221 754L221 755L225 755L221 754M226 756L227 757L226 756M227.667 757.333L228.333 757.667L227.667 757.333M229 758L230 759L229 758z"/>
<path style="fill:#63686c; stroke:none;" d="M638.667 758.333L639.333 758.667L638.667 758.333M632 764L638 759L632 764z"/>
<path style="fill:#5295ba; stroke:none;" d="M233.667 760.333L234.333 760.667L233.667 760.333M235.667 762.333L236.333 762.667L235.667 762.333M239 763L240 764L239 763M240 764L241 765L240 764z"/>
<path style="fill:#63686c; stroke:none;" d="M625 767C618.068 766.652 601.88 775.411 598 781C607.685 778.924 623.375 771.39 630 764L625 767z"/>
<path style="fill:#5295ba; stroke:none;" d="M154 765L155 766L154 765M625 765L626 766L625 765M244 766L245 767L244 766M621 766L622 767L621 766M623.667 766.333L624.333 766.667L623.667 766.333M245 767L246 768L245 767M246.667 768.333L247.333 768.667L246.667 768.333M619 768L620 769L619 768M250 769L251 770L250 769M251 770L252 771L251 770M253.667 771.333L254.333 771.667L253.667 771.333M612.667 771.333L613.333 771.667L612.667 771.333M256 772L257 773L256 772M610 772L611 773L610 772M609 773L610 774L609 773M258 774L258 775L261 775L258 774M606 774L606 775L609 775L606 774M605 775L606 776L605 775M263 776L264 777L263 776M604 776L605 777L604 776M265.667 777.333L266.333 777.667L265.667 777.333M600 777L600 778L604 778L600 777M268 778L269 779L268 778M599 778L600 779L599 778M172 779L173 780L172 779M269 779L270 780L269 779M273 780L274 781L273 780M587 783L587 784L592 785L592 782L598 782C595.108 778.839 590.618 782.183 587 783z"/>
<path style="fill:#63686c; stroke:none;" d="M592 783L597 781L592 783z"/>
<path style="fill:#5295ba; stroke:none;" d="M176 782L177 783L176 782M689 782L690 783L689 782M276 783L276 784L280 784L276 783M585 784L568 792L568 793L585 788L585 784z"/>
<path style="fill:#63686c; stroke:none;" d="M586 787L590 784L586 787z"/>
<path style="fill:#5295ba; stroke:none;" d="M282 786L283 787L282 786M286 786L287 787L286 786M288 787L289 788L288 787z"/>
<path style="fill:#63686c; stroke:none;" d="M579 790L584 788L579 790z"/>
<path style="fill:#5295ba; stroke:none;" d="M289 788L290 789L289 788M294 789L295 790L294 789M295 790L296 791L295 790z"/>
<path style="fill:#63686c; stroke:none;" d="M571 793L577 791C574.12 789.902 572.65 790.445 571 793z"/>
<path style="fill:#5295ba; stroke:none;" d="M296 791L296 792L299 792L296 791M302 792L303 793L302 792M560 795L560 796L564 796L566 793L560 795z"/>
<path style="fill:#63686c; stroke:none;" d="M564 796L569 794C566.346 792.005 564.869 792.9 564 796z"/>
<path style="fill:#5295ba; stroke:none;" d="M193 794L194 795L193 794M304 794L304 795L307 795L304 794M311 795L312 796L311 795M556.667 795.333L557.333 795.667L556.667 795.333z"/>
<path style="fill:#63686c; stroke:none;" d="M556 798L562 797C559.381 795.384 557.834 795.477 556 798z"/>
<path style="fill:#5295ba; stroke:none;" d="M669 796L670 797L669 796M313 797L313 798L317 798L313 797M550 797L550 798L556 799L550 797M320 798L321 799L320 798M547 798L539 800L539 801L547 802L547 798z"/>
<path style="fill:#63686c; stroke:none;" d="M546 801L554 799C550.629 797.64 548.475 798.471 546 801z"/>
<path style="fill:#5295ba; stroke:none;" d="M322.667 800.333L323.333 800.667L322.667 800.333M328.667 800.333L329.333 800.667L328.667 800.333M331 801L332 802L331 801M537 801L528 803L528 804L537 805L537 801z"/>
<path style="fill:#63686c; stroke:none;" d="M537 804L546 802C542.475 800.525 539.144 800.693 537 804z"/>
<path style="fill:#5295ba; stroke:none;" d="M332 802L333 803L332 802M207 803L208 804L207 803M340 803L341 804L340 803M658 803L659 804L658 803M209 804L210 805L209 804M343 804L344 805L343 804M525 804L513 806L513 807C516.205 807 525.183 808.562 525 804z"/>
<path style="fill:#63686c; stroke:none;" d="M525 807L534 805C530.476 803.525 527.144 803.693 525 807z"/>
<path style="fill:#5295ba; stroke:none;" d="M354 806L355 807L354 806M356 807L357 808L356 807M511 807L512 808L511 807z"/>
<path style="fill:#63686c; stroke:none;" d="M511 810L523 808C519.003 806.323 513.507 806.133 511 810z"/>
<path style="fill:#5295ba; stroke:none;" d="M651 807L652 808L651 807M357 808L358 809L357 808M370 809L371 810L370 809M497 809L498 810L497 809z"/>
<path style="fill:#63686c; stroke:none;" d="M475 816L509 811C503.629 807.331 478.483 810.473 475 816z"/>
<path style="fill:#5295ba; stroke:none;" d="M507 809L507 810L511 810L507 809M219 810L220 811L219 810M495 810L496 811L495 810M221 811L222 812L221 811M373 811L374 812L373 811M493.667 811.333L494.333 811.667L493.667 811.333M387.667 812.333L388.333 812.667L387.667 812.333M478.667 812.333L479.333 812.667L478.667 812.333M391 813L392 814L391 813M475 813L476 814L475 813M392 814C396.259 818.874 412.68 816 419 816L419 815L392 814M443 815L443 816C450.063 816 470.306 819.372 475 814L443 815z"/>
<path style="fill:#63686c; stroke:none;" d="M405 816L405 817L462 817L447 815.914L405 816z"/>
<path style="fill:#5295ba; stroke:none;" d="M428 815L428 816L441 816L428 815M232 817L233 818L232 817M234 818L235 819L234 818M238 820L239 821L238 820M627 820L628 821L627 820M246 824L247 825L246 824M252 827L253 828L252 827z"/>
<path style="fill:#b1b0b1; stroke:none;" d="M286 841L287 842L286 841z"/>
<path style="fill:#5295ba; stroke:none;" d="M290 842L291 843L290 842M308 848L309 849L308 848M334.667 855.333L335.333 855.667L334.667 855.333M530 855L531 856L530 855M348.667 858.333L349.333 858.667L348.667 858.333M516 858L517 859L516 858M373.667 862.333L374.333 862.667L373.667 862.333z"/>
</svg>
