<?xml version="1.0" standalone="no"?>
<!DOCTYPE svg PUBLIC "-//W3C//DTD SVG 20010904//EN"
 "http://www.w3.org/TR/2001/REC-SVG-20010904/DTD/svg10.dtd">
<svg version="1.0" xmlns="http://www.w3.org/2000/svg"
 width="361.000000pt" height="135.000000pt" viewBox="0 0 361.000000 135.000000"
 preserveAspectRatio="xMidYMid meet">

<g transform="translate(0.000000,135.000000) scale(0.100000,-0.100000)"
fill="#000000" stroke="none">
<path d="M0 675 l0 -675 1805 0 1805 0 0 675 0 675 -1805 0 -1805 0 0 -675z
m935 474 c80 -37 191 -138 233 -210 l28 -49 17 35 c9 19 23 35 30 35 25 0 77
-22 77 -32 0 -22 -64 -98 -83 -98 -34 0 -12 -23 35 -35 95 -24 149 -88 156
-186 l4 -59 -95 0 c-87 0 -96 -2 -101 -20 -3 -11 -9 -29 -12 -40 -4 -14 -1
-20 10 -20 9 0 25 9 36 20 16 16 33 20 85 20 76 0 79 -7 36 -67 -38 -52 -101
-83 -172 -83 -51 0 -55 -2 -78 -36 -39 -56 -127 -131 -194 -163 -204 -100
-421 -76 -601 66 -31 24 -66 58 -76 76 -41 66 -16 144 54 167 45 14 76 2 142
-60 137 -125 330 -123 462 4 60 57 72 84 72 161 0 41 6 78 16 97 14 28 14 34
-1 81 -32 98 -97 168 -193 208 -81 35 -93 43 -108 71 -24 47 -18 86 21 125 34
34 39 35 84 30 27 -3 79 -20 116 -38z m1535 -199 c42 -42 7 -120 -55 -120 -12
0 -34 9 -49 21 -53 42 -21 119 49 119 22 0 43 -8 55 -20z m702 -162 l3 -151
48 72 c26 40 54 74 61 77 7 3 43 4 80 2 l67 -3 -59 -80 -60 -79 25 -50 c14
-28 45 -85 69 -128 l43 -78 -74 0 -73 0 -43 84 -43 83 -23 -27 c-18 -22 -23
-40 -23 -84 l0 -56 -65 0 -65 0 0 285 0 285 65 0 64 0 3 -152z m-2392 132 c83
-23 165 -98 182 -167 6 -22 4 -23 -63 -23 -57 0 -70 3 -78 19 -6 10 -31 29
-57 41 -114 56 -227 -17 -227 -145 0 -100 57 -160 152 -160 67 0 107 18 127
57 l15 28 -76 0 -76 0 3 53 3 52 139 3 c77 1 143 -1 148 -6 12 -12 -10 -129
-33 -174 -81 -159 -319 -187 -452 -54 -181 181 -55 484 203 486 30 0 71 -5 90
-10z m1300 -215 l0 -215 115 0 115 0 0 -60 0 -60 -180 0 -180 0 0 275 0 275
65 0 65 0 0 -215z m-299 74 c146 -74 156 -295 17 -387 -37 -24 -51 -27 -123
-27 -72 0 -86 3 -123 27 -83 55 -120 168 -88 265 42 127 194 185 317 122z
m1110 -2 c61 -40 74 -82 77 -254 l4 -153 -66 0 -66 0 0 126 c0 154 -12 184
-72 184 -73 0 -88 -32 -88 -190 l0 -120 -65 0 -65 0 0 210 0 210 60 0 c54 0
60 -2 60 -21 0 -20 0 -20 28 -1 38 27 50 30 108 31 37 1 60 -5 85 -22z m-411
-197 l0 -210 -65 0 -65 0 0 210 0 210 65 0 65 0 0 -210z"/>
<path d="M1250 665 c0 -20 5 -25 25 -25 22 0 24 3 16 19 -17 31 -41 34 -41 6z"/>
<path d="M1635 676 c-61 -26 -75 -118 -26 -167 41 -40 91 -40 132 0 51 51 33
147 -32 170 -39 13 -37 13 -74 -3z"/>
</g>
</svg>
